<svg id="Layer_1" data-name="Layer 1" xmlns="http://www.w3.org/2000/svg" xmlns:xlink="http://www.w3.org/1999/xlink" viewBox="0 0 193.82 98.36"><defs><style>.cls-1{fill:none;}.cls-2{fill:#fff;}.cls-3{fill:url(#新建渐变色板_1);}.cls-4{clip-path:url(#clip-path);}.cls-5{fill:url(#New_Gradient_Swatch_10);}.cls-6{clip-path:url(#clip-path-2);}.cls-7{fill:url(#New_Gradient_Swatch_10-2);}.cls-8{clip-path:url(#clip-path-3);}.cls-9{fill:url(#New_Gradient_Swatch_10-3);}.cls-10{clip-path:url(#clip-path-4);}.cls-11{fill:url(#New_Gradient_Swatch_10-4);}.cls-12{clip-path:url(#clip-path-5);}.cls-13{fill:url(#New_Gradient_Swatch_10-5);}.cls-14{clip-path:url(#clip-path-6);}.cls-15{fill:url(#New_Gradient_Swatch_10-6);}.cls-16{clip-path:url(#clip-path-7);}.cls-17{fill:url(#New_Gradient_Swatch_10-7);}.cls-18{clip-path:url(#clip-path-8);}.cls-19{fill:url(#linear-gradient);}.cls-20{clip-path:url(#clip-path-9);}.cls-21{fill:url(#linear-gradient-2);}.cls-22{clip-path:url(#clip-path-10);}.cls-23{fill:url(#New_Gradient_Swatch_2);}.cls-24{clip-path:url(#clip-path-11);}.cls-25{fill:url(#New_Gradient_Swatch_6);}.cls-26{clip-path:url(#clip-path-12);}.cls-27{fill:url(#New_Gradient_Swatch_6-2);}</style><linearGradient id="新建渐变色板_1" x1="366.48" y1="349.15" x2="366.48" y2="339.78" gradientUnits="userSpaceOnUse"><stop offset="0" stop-color="#008fbe"/><stop offset="1" stop-color="#006f93"/></linearGradient><clipPath id="clip-path" transform="translate(-203.4 -250.8)"><path class="cls-1" d="M331.86,314.9a7.74,7.74,0,0,0-2.24,2.55q-1.33-3.65-6.12-3.64a6.27,6.27,0,0,0-2,.3,6.39,6.39,0,0,0-2.83,1.84,6.69,6.69,0,0,0-.83,1.18c0-.18,0-.41-.09-.67s-.1-.54-.14-.81-.11-.54-.18-.79a2.62,2.62,0,0,0-.22-.58h-4.58v20.44h5.61V324a9.07,9.07,0,0,1,.32-2.69,4,4,0,0,1,.85-1.6,2.61,2.61,0,0,1,1.2-.77,4.84,4.84,0,0,1,1.34-.2,2.13,2.13,0,0,1,2.16,1.15,7.94,7.94,0,0,1,.54,3.28v11.54h5.61v-11a7.34,7.34,0,0,1,.34-2.51,3.87,3.87,0,0,1,.86-1.51,2.77,2.77,0,0,1,1.19-.73,4.61,4.61,0,0,1,1.33-.2,2.13,2.13,0,0,1,2.15,1.15,8.14,8.14,0,0,1,.53,3.28v11.54h5.61v-13c0-2.72-.54-4.71-1.64-6s-2.8-1.92-5.11-1.92a5.87,5.87,0,0,0-3.66,1.09"/></clipPath><linearGradient id="New_Gradient_Swatch_10" x1="-212.14" y1="558.82" x2="-211.94" y2="558.82" gradientTransform="matrix(0, 162.67, 162.67, 0, -90777.07, 34559.91)" gradientUnits="userSpaceOnUse"><stop offset="0" stop-color="#008b5f"/><stop offset="0.37" stop-color="#007b65"/><stop offset="0.67" stop-color="#007567"/><stop offset="1" stop-color="#007567"/></linearGradient><clipPath id="clip-path-2" transform="translate(-203.4 -250.8)"><path class="cls-1" d="M351,308.32l-7.39,9.44.2.79h2.57v9.26c0,2.52.63,4.35,1.9,5.47a8,8,0,0,0,5.49,1.68,16.23,16.23,0,0,0,1.72-.09v-4.4a5.33,5.33,0,0,1-.57,0,4.6,4.6,0,0,1-1.31-.16,1.84,1.84,0,0,1-.93-.59,2.87,2.87,0,0,1-.57-1.19,8,8,0,0,1-.2-2v-8h4.79v-4.27h-4.79v-6Z"/></clipPath><linearGradient id="New_Gradient_Swatch_10-2" x1="-212.13" y1="558.25" x2="-211.94" y2="558.25" gradientTransform="matrix(0, 162.67, 162.67, 0, -90662.21, 34559.89)" xlink:href="#New_Gradient_Swatch_10"/><clipPath id="clip-path-3" transform="translate(-203.4 -250.8)"><path class="cls-1" d="M278.54,306.93A11.89,11.89,0,0,0,274.3,310a13.53,13.53,0,0,0-2.62,4.68,18.2,18.2,0,0,0-.91,5.87,19.19,19.19,0,0,0,.86,5.85,13.08,13.08,0,0,0,2.6,4.64,11.6,11.6,0,0,0,4.24,3.05,15,15,0,0,0,5.9,1.09,24.63,24.63,0,0,0,3.54-.24,16.34,16.34,0,0,0,2.35-.55v-4.19H285.2q-8.19,0-8.19-9.65c0-3.24.68-5.68,2-7.34a7.14,7.14,0,0,1,5.84-2.46h5v-4.2a14.29,14.29,0,0,0-2.11-.51,23.82,23.82,0,0,0-3.5-.23,14.12,14.12,0,0,0-5.71,1.1"/></clipPath><linearGradient id="New_Gradient_Swatch_10-3" x1="-212.13" y1="560.01" x2="-211.94" y2="560.01" gradientTransform="matrix(0, 162.67, 162.67, 0, -91019.73, 34560.37)" xlink:href="#New_Gradient_Swatch_10"/><clipPath id="clip-path-4" transform="translate(-203.4 -250.8)"><path class="cls-1" d="M300.73,330.79a4.13,4.13,0,0,1-1.31-.32,2.54,2.54,0,0,1-1-.81,2.48,2.48,0,0,1-.44-1.58,2.43,2.43,0,0,1,1.13-2.23,5.82,5.82,0,0,1,3.06-.7,9.32,9.32,0,0,1,1,.06c.37,0,.71.09,1,.14v5.22l-1,.18a6.8,6.8,0,0,1-1.18.1c-.35,0-.75,0-1.21-.06m-3.1-16.7a19.68,19.68,0,0,0-2.37.52v3.63h4.54a12.34,12.34,0,0,1,1.8.12,3.81,3.81,0,0,1,1.37.45,2.41,2.41,0,0,1,.86.93,3.17,3.17,0,0,1,.32,1.54v.48c-.92-.08-1.77-.12-2.53-.12a15.51,15.51,0,0,0-3.17.33,9.57,9.57,0,0,0-2.86,1.11,6.3,6.3,0,0,0-2.09,2.05,5.9,5.9,0,0,0-.81,3.19,7,7,0,0,0,.65,3.2,5.46,5.46,0,0,0,1.86,2.13,7.81,7.81,0,0,0,2.88,1.19,17.66,17.66,0,0,0,3.7.36,22.33,22.33,0,0,0,4.46-.4,32.62,32.62,0,0,0,3.37-.83V322.11c0-2.9-.78-5-2.32-6.32a9.56,9.56,0,0,0-6.42-2,20,20,0,0,0-3.24.28"/></clipPath><linearGradient id="New_Gradient_Swatch_10-4" x1="-212.13" y1="559.49" x2="-211.94" y2="559.49" gradientTransform="matrix(0, 162.67, 162.67, 0, -90913.5, 34560.1)" xlink:href="#New_Gradient_Swatch_10"/><clipPath id="clip-path-5" transform="translate(-203.4 -250.8)"><polygon class="cls-1" points="390.31 314.29 385.24 324.01 391.17 334.72 397.22 334.72 391.13 323.74 396.35 314.29 390.31 314.29"/></clipPath><linearGradient id="New_Gradient_Swatch_10-5" x1="-212.14" y1="557.19" x2="-211.94" y2="557.19" gradientTransform="matrix(0, 162.66, 162.66, 0, -90447.77, 34559.71)" xlink:href="#New_Gradient_Swatch_10"/><clipPath id="clip-path-6" transform="translate(-203.4 -250.8)"><path class="cls-1" d="M364.33,319.19a3.9,3.9,0,0,1,3-1.11,3.29,3.29,0,0,1,2.71,1.17,4.9,4.9,0,0,1,1,3.06h-8a5.16,5.16,0,0,1,1.22-3.12m-1.2-4.53A9,9,0,0,0,360,317a10,10,0,0,0-1.88,3.44,14.74,14.74,0,0,0,0,8.46,8.75,8.75,0,0,0,1.9,3.34,8.46,8.46,0,0,0,3.32,2.19,13.45,13.45,0,0,0,4.88.8,20.27,20.27,0,0,0,5.85-.81v-3.66h-5.42a6.71,6.71,0,0,1-3.95-1.07,4.31,4.31,0,0,1-1.66-3.44h13.13c.05-.29.1-.68.14-1.16s.05-1,.05-1.49a12.13,12.13,0,0,0-.59-3.85,8.32,8.32,0,0,0-4.58-5.16,9.14,9.14,0,0,0-3.8-.75,10.18,10.18,0,0,0-4.28.85"/></clipPath><linearGradient id="New_Gradient_Swatch_10-6" x1="-212.13" y1="557.82" x2="-211.94" y2="557.82" gradientTransform="matrix(0, 162.67, 162.67, 0, -90575.5, 34560.1)" xlink:href="#New_Gradient_Swatch_10"/><clipPath id="clip-path-7" transform="translate(-203.4 -250.8)"><rect class="cls-1" x="378.88" y="305.83" width="5.57" height="28.9"/></clipPath><linearGradient id="New_Gradient_Swatch_10-7" x1="-212.14" y1="557.44" x2="-211.94" y2="557.44" gradientTransform="matrix(0, 162.67, 162.67, 0, -90498.77, 34560.45)" xlink:href="#New_Gradient_Swatch_10"/><clipPath id="clip-path-8" transform="translate(-203.4 -250.8)"><path class="cls-1" d="M225.5,265.21h0c-7.74,6.69-12.81,16.48-13.63,18h24.9a53.1,53.1,0,0,1,5.9-8l0,0a18.3,18.3,0,0,0-16.38-10.13l-.74,0"/></clipPath><linearGradient id="linear-gradient" x1="-212.07" y1="559.96" x2="-211.88" y2="559.96" gradientTransform="matrix(-403.54, -0.01, -0.01, 403.54, -85299.73, -225693.92)" gradientUnits="userSpaceOnUse"><stop offset="0" stop-color="#b3d59c"/><stop offset="0.23" stop-color="#b3d59c"/><stop offset="0.4" stop-color="#7fb584"/><stop offset="0.6" stop-color="#49936b"/><stop offset="0.78" stop-color="#217a59"/><stop offset="0.92" stop-color="#096b4e"/><stop offset="1" stop-color="#00654a"/></linearGradient><clipPath id="clip-path-9" transform="translate(-203.4 -250.8)"><path class="cls-1" d="M225.5,265.21a18.44,18.44,0,0,1,17.12,10.11c4.24-4.83,10.23-10,16.18-10h.39a25.57,25.57,0,0,0-17-6.66c-5.21,0-11,1.72-16.69,6.55"/></clipPath><linearGradient id="linear-gradient-2" x1="-210.88" y1="560.03" x2="-210.68" y2="560.03" gradientTransform="matrix(0.06, 350.09, 350.09, -0.06, -195801.83, 74072.13)" gradientUnits="userSpaceOnUse"><stop offset="0" stop-color="#8cbd22"/><stop offset="0.19" stop-color="#8cbd22"/><stop offset="0.53" stop-color="#4a9957"/><stop offset="0.9" stop-color="#007192"/><stop offset="1" stop-color="#007192"/></linearGradient><clipPath id="clip-path-10" transform="translate(-203.4 -250.8)"><path class="cls-1" d="M242.76,291.39h0m0,0h0m-30.91-8.12c.83,1.6,5.48,11.66,13.74,18.51h.65a18.33,18.33,0,0,0,16.52-10.4,53.16,53.16,0,0,1-6-8.12Z"/></clipPath><linearGradient id="New_Gradient_Swatch_2" x1="-211.11" y1="560.07" x2="-210.92" y2="560.07" gradientTransform="matrix(-0.02, 348.27, 348.27, 0.02, -194834.88, 73774.93)" gradientUnits="userSpaceOnUse"><stop offset="0" stop-color="#aecf7d"/><stop offset="1" stop-color="#008385"/></linearGradient><clipPath id="clip-path-11" transform="translate(-203.4 -250.8)"><path class="cls-1" d="M226.24,301.79h-.65A25.42,25.42,0,0,0,246.44,308a24.93,24.93,0,0,0,5.09-1.43,28.85,28.85,0,0,0,8.11-5.31c-.28,0-7.57-.12-16.88-9.84a18.33,18.33,0,0,1-16.52,10.4"/></clipPath><linearGradient id="New_Gradient_Swatch_6" x1="-211.9" y1="558.25" x2="-211.71" y2="558.25" gradientTransform="matrix(0.06, -253.55, -253.55, -0.06, 141801.36, -53384.93)" gradientUnits="userSpaceOnUse"><stop offset="0" stop-color="#002e51"/><stop offset="1" stop-color="#006892"/></linearGradient><clipPath id="clip-path-12" transform="translate(-203.4 -250.8)"><path class="cls-1" d="M242.62,275.32a18.29,18.29,0,0,1,.14,16.07c9.82,11.2,16.85,9.86,16.85,9.86a24.79,24.79,0,0,0-.42-35.93,5,5,0,0,0-.59,0c-1.91,0-8.24.76-16,10"/></clipPath><linearGradient id="New_Gradient_Swatch_6-2" x1="-212.68" y1="559.34" x2="-212.48" y2="559.34" gradientTransform="matrix(0, -213.03, -213.03, 0, 119410.47, -45000.82)" xlink:href="#New_Gradient_Swatch_6"/></defs><path class="cls-2" d="M336.73,345.75a6.36,6.36,0,0,0,.66.2,3.33,3.33,0,0,0,.83.08,1.82,1.82,0,0,0,1.17-.31,1.08,1.08,0,0,0,.38-.87,1.25,1.25,0,0,0-.08-.45.78.78,0,0,0-.24-.33,1.59,1.59,0,0,0-.41-.25l-.56-.25-.55-.22a3.89,3.89,0,0,1-.5-.25,1.41,1.41,0,0,1-.39-.34,1.38,1.38,0,0,1-.26-.46,1.87,1.87,0,0,1-.1-.62,1.65,1.65,0,0,1,.59-1.35,2.5,2.5,0,0,1,1.65-.5,4.77,4.77,0,0,1,.87.08,3.94,3.94,0,0,1,.72.19,3.16,3.16,0,0,1-.2.79,5.56,5.56,0,0,0-.6-.17,3.48,3.48,0,0,0-.76-.08,1.49,1.49,0,0,0-.93.25.85.85,0,0,0-.32.72.83.83,0,0,0,.08.36.71.71,0,0,0,.21.27,1.51,1.51,0,0,0,.32.22,3.34,3.34,0,0,0,.38.17l.53.21a4.68,4.68,0,0,1,.67.32,2,2,0,0,1,.51.39,1.42,1.42,0,0,1,.32.53,2.16,2.16,0,0,1,.11.71,1.9,1.9,0,0,1-.68,1.54,2.83,2.83,0,0,1-1.89.57l-.53,0a2.75,2.75,0,0,1-.44-.06,2.59,2.59,0,0,1-.4-.09l-.39-.12a2.2,2.2,0,0,1,.09-.43C336.63,346,336.68,345.89,336.73,345.75Z" transform="translate(-203.4 -250.8)"/><path class="cls-2" d="M343.89,344.58a1.6,1.6,0,0,0,.41,1.17,1.66,1.66,0,0,0,1.17.37,3.43,3.43,0,0,0,1.28-.24,2,2,0,0,1,.13.35,1.9,1.9,0,0,1,.05.4,2.79,2.79,0,0,1-.69.2,4.21,4.21,0,0,1-.83.07,3.25,3.25,0,0,1-1.14-.18,2.12,2.12,0,0,1-.79-.53,2,2,0,0,1-.44-.8,3.2,3.2,0,0,1-.15-1,3.62,3.62,0,0,1,.14-1,2.08,2.08,0,0,1,.43-.82,2.05,2.05,0,0,1,.71-.55,2.32,2.32,0,0,1,1-.21,2.08,2.08,0,0,1,.89.18,1.63,1.63,0,0,1,.63.47,1.76,1.76,0,0,1,.39.71,2.83,2.83,0,0,1,.14.9c0,.08,0,.18,0,.28s0,.18,0,.25Zm2.42-.71a2.08,2.08,0,0,0-.07-.5A1.19,1.19,0,0,0,346,343a1,1,0,0,0-.35-.3,1.32,1.32,0,0,0-1.4.25,1.79,1.79,0,0,0-.37,1Z" transform="translate(-203.4 -250.8)"/><path class="cls-2" d="M350.35,344.58a1.39,1.39,0,0,0,1.58,1.54,3.52,3.52,0,0,0,1.29-.24,1.43,1.43,0,0,1,.12.35,3,3,0,0,1,.06.4,2.92,2.92,0,0,1-.69.2,4.28,4.28,0,0,1-.83.07,3.17,3.17,0,0,1-1.14-.18,2,2,0,0,1-.79-.53,2.16,2.16,0,0,1-.45-.8,3.2,3.2,0,0,1-.14-1,3.63,3.63,0,0,1,.13-1,2.37,2.37,0,0,1,.43-.82,2.09,2.09,0,0,1,.72-.55,2.26,2.26,0,0,1,1-.21,2,2,0,0,1,.88.18,1.59,1.59,0,0,1,.64.47,1.88,1.88,0,0,1,.39.71,3.15,3.15,0,0,1,.13.9v.28a1.19,1.19,0,0,0,0,.25Zm2.42-.71a1.68,1.68,0,0,0-.07-.5,1.18,1.18,0,0,0-.21-.42,1,1,0,0,0-.86-.4,1.1,1.1,0,0,0-.89.35,1.79,1.79,0,0,0-.38,1Z" transform="translate(-203.4 -250.8)"/><path class="cls-2" d="M359.63,340a6.18,6.18,0,0,1,.67-.08c.29,0,.57,0,.87,0a5,5,0,0,1,1,.1,2,2,0,0,1,.76.31,1.47,1.47,0,0,1,.5.55,1.72,1.72,0,0,1,.17.82,1.64,1.64,0,0,1-.33,1,1.38,1.38,0,0,1-.36.32,1.33,1.33,0,0,1-.4.19,1.54,1.54,0,0,1,.54.14,1.65,1.65,0,0,1,.49.32,1.69,1.69,0,0,1,.35.53,2,2,0,0,1,.14.77,1.84,1.84,0,0,1-.22.94,1.67,1.67,0,0,1-.59.62,2.7,2.7,0,0,1-.89.34,4.68,4.68,0,0,1-1.09.11l-.78,0-.82-.08Zm1.66,2.85a1.52,1.52,0,0,0,1-.28,1.05,1.05,0,0,0,.34-.84.93.93,0,0,0-.37-.81,1.62,1.62,0,0,0-1-.26h-.36l-.3,0v2.16ZM360.6,346a1.52,1.52,0,0,0,.34,0h.4A4.26,4.26,0,0,0,362,346a1.53,1.53,0,0,0,.52-.2.94.94,0,0,0,.37-.37,1.19,1.19,0,0,0,.13-.6,1.32,1.32,0,0,0-.12-.59,1.14,1.14,0,0,0-.33-.39,1.42,1.42,0,0,0-.52-.21,3.13,3.13,0,0,0-.63-.06h-.8Z" transform="translate(-203.4 -250.8)"/><path class="cls-2" d="M367.09,344.58a1.39,1.39,0,0,0,1.58,1.54,3.43,3.43,0,0,0,1.28-.24,1.42,1.42,0,0,1,.13.35,1.9,1.9,0,0,1,.05.4,2.84,2.84,0,0,1-.68.2,4.39,4.39,0,0,1-.84.07,3.25,3.25,0,0,1-1.14-.18,2.08,2.08,0,0,1-.78-.53,2,2,0,0,1-.46-.8,3.52,3.52,0,0,1-.14-1,3.62,3.62,0,0,1,.14-1,2.2,2.2,0,0,1,.42-.82,2.09,2.09,0,0,1,.72-.55,2.34,2.34,0,0,1,1-.21,2,2,0,0,1,.88.18,1.56,1.56,0,0,1,.63.47,1.76,1.76,0,0,1,.39.71,2.83,2.83,0,0,1,.14.9c0,.08,0,.18,0,.28s0,.18,0,.25Zm2.42-.71a1.69,1.69,0,0,0-.08-.5.93.93,0,0,0-.21-.42,1,1,0,0,0-.35-.3,1.13,1.13,0,0,0-.51-.1,1.1,1.1,0,0,0-.88.35,1.65,1.65,0,0,0-.38,1Z" transform="translate(-203.4 -250.8)"/><path class="cls-2" d="M374.52,346.79h-.69l-1.61-4.88a1.1,1.1,0,0,1,.26,0H373a.9.9,0,0,1,.25,0l1.36,4.53,1.39-4.53a3.18,3.18,0,0,1,.47,0h.23a1.18,1.18,0,0,1,.27,0l-1.89,5.86a4.22,4.22,0,0,1-.28.66,1.46,1.46,0,0,1-.32.43,1.11,1.11,0,0,1-.41.23,1.88,1.88,0,0,1-.51.06,3.25,3.25,0,0,1-.44,0,3,3,0,0,1-.37-.08,1.78,1.78,0,0,1,.15-.73l.23.06a1.66,1.66,0,0,0,.32,0,.93.93,0,0,0,.24,0,.54.54,0,0,0,.2-.1.71.71,0,0,0,.18-.2,2.18,2.18,0,0,0,.15-.36Z" transform="translate(-203.4 -250.8)"/><path class="cls-2" d="M381,346.9a2.41,2.41,0,0,1-1-.19,1.92,1.92,0,0,1-.71-.54,2.42,2.42,0,0,1-.43-.81,3.58,3.58,0,0,1-.13-1,3.63,3.63,0,0,1,.13-1,2.37,2.37,0,0,1,.43-.8A2.05,2.05,0,0,1,380,342a2.6,2.6,0,0,1,2,0,2.12,2.12,0,0,1,1.13,1.35,3.29,3.29,0,0,1,.14,1,3.25,3.25,0,0,1-.14,1,2.09,2.09,0,0,1-.42.81,1.92,1.92,0,0,1-.71.54A2.41,2.41,0,0,1,381,346.9Zm0-.75a1.08,1.08,0,0,0,1-.48,2.36,2.36,0,0,0,.32-1.32A2.3,2.3,0,0,0,382,343a1.07,1.07,0,0,0-1-.47,1,1,0,0,0-1,.47,2.31,2.31,0,0,0-.31,1.31,2.37,2.37,0,0,0,.31,1.32A1,1,0,0,0,381,346.15Z" transform="translate(-203.4 -250.8)"/><path class="cls-2" d="M385.73,341.91a1.52,1.52,0,0,1,.21,0h.39l.2,0c0,.09,0,.22.05.38a3.58,3.58,0,0,1,0,.41,1.44,1.44,0,0,1,.25-.33,2.28,2.28,0,0,1,.33-.29,1.78,1.78,0,0,1,.44-.2,1.61,1.61,0,0,1,.54-.09,1.52,1.52,0,0,1,1.24.49,2.19,2.19,0,0,1,.4,1.42v3.09l-.24,0h-.47l-.23,0V344a1.82,1.82,0,0,0-.21-1,.75.75,0,0,0-.67-.32,1.21,1.21,0,0,0-.5.1,1.1,1.1,0,0,0-.42.29,1.53,1.53,0,0,0-.29.52,2.18,2.18,0,0,0-.11.76v2.48l-.23,0H386l-.24,0Z" transform="translate(-203.4 -250.8)"/><path class="cls-2" d="M395.53,339.81l.24,0h.46l.23,0v6.84a6.85,6.85,0,0,1-.8.18,7.5,7.5,0,0,1-1,.07,3.49,3.49,0,0,1-1-.13,1.92,1.92,0,0,1-.8-.42,2,2,0,0,1-.54-.76,2.82,2.82,0,0,1-.2-1.15,3.1,3.1,0,0,1,.17-1.08,2.56,2.56,0,0,1,.5-.83,2.44,2.44,0,0,1,.77-.54,2.56,2.56,0,0,1,1-.19,2.81,2.81,0,0,1,.5,0,2.21,2.21,0,0,1,.44.1Zm0,2.93a1.64,1.64,0,0,0-.41-.12,3.3,3.3,0,0,0-.47,0,1.45,1.45,0,0,0-.68.15,1.26,1.26,0,0,0-.47.38,1.88,1.88,0,0,0-.27.59,2.5,2.5,0,0,0-.09.74,1.74,1.74,0,0,0,.42,1.29,1.62,1.62,0,0,0,1.15.39l.45,0,.37-.07Z" transform="translate(-203.4 -250.8)"/><path class="cls-3" d="M336.73,345.75a6.36,6.36,0,0,0,.66.2,3.33,3.33,0,0,0,.83.08,1.82,1.82,0,0,0,1.17-.31,1.08,1.08,0,0,0,.38-.87,1.25,1.25,0,0,0-.08-.45.78.78,0,0,0-.24-.33,1.59,1.59,0,0,0-.41-.25l-.56-.25-.55-.22a3.89,3.89,0,0,1-.5-.25,1.41,1.41,0,0,1-.39-.34,1.38,1.38,0,0,1-.26-.46,1.87,1.87,0,0,1-.1-.62,1.65,1.65,0,0,1,.59-1.35,2.5,2.5,0,0,1,1.65-.5,4.77,4.77,0,0,1,.87.08,3.94,3.94,0,0,1,.72.19,3.16,3.16,0,0,1-.2.79,5.56,5.56,0,0,0-.6-.17,3.48,3.48,0,0,0-.76-.08,1.49,1.49,0,0,0-.93.25.85.85,0,0,0-.32.72.83.83,0,0,0,.08.36.71.71,0,0,0,.21.27,1.51,1.51,0,0,0,.32.22,3.34,3.34,0,0,0,.38.17l.53.21a4.68,4.68,0,0,1,.67.32,2,2,0,0,1,.51.39,1.42,1.42,0,0,1,.32.53,2.16,2.16,0,0,1,.11.71,1.9,1.9,0,0,1-.68,1.54,2.83,2.83,0,0,1-1.89.57l-.53,0a2.75,2.75,0,0,1-.44-.06,2.59,2.59,0,0,1-.4-.09l-.39-.12a2.2,2.2,0,0,1,.09-.43C336.63,346,336.68,345.89,336.73,345.75Z" transform="translate(-203.4 -250.8)"/><path class="cls-3" d="M343.89,344.58a1.6,1.6,0,0,0,.41,1.17,1.66,1.66,0,0,0,1.17.37,3.43,3.43,0,0,0,1.28-.24,2,2,0,0,1,.13.35,1.9,1.9,0,0,1,.05.4,2.79,2.79,0,0,1-.69.2,4.21,4.21,0,0,1-.83.07,3.25,3.25,0,0,1-1.14-.18,2.12,2.12,0,0,1-.79-.53,2,2,0,0,1-.44-.8,3.2,3.2,0,0,1-.15-1,3.62,3.62,0,0,1,.14-1,2.08,2.08,0,0,1,.43-.82,2.05,2.05,0,0,1,.71-.55,2.32,2.32,0,0,1,1-.21,2.08,2.08,0,0,1,.89.18,1.63,1.63,0,0,1,.63.47,1.76,1.76,0,0,1,.39.71,2.83,2.83,0,0,1,.14.9c0,.08,0,.18,0,.28s0,.18,0,.25Zm2.42-.71a2.08,2.08,0,0,0-.07-.5A1.19,1.19,0,0,0,346,343a1,1,0,0,0-.35-.3,1.32,1.32,0,0,0-1.4.25,1.79,1.79,0,0,0-.37,1Z" transform="translate(-203.4 -250.8)"/><path class="cls-3" d="M350.35,344.58a1.39,1.39,0,0,0,1.58,1.54,3.52,3.52,0,0,0,1.29-.24,1.43,1.43,0,0,1,.12.35,3,3,0,0,1,.06.4,2.92,2.92,0,0,1-.69.2,4.28,4.28,0,0,1-.83.07,3.17,3.17,0,0,1-1.14-.18,2,2,0,0,1-.79-.53,2.16,2.16,0,0,1-.45-.8,3.2,3.2,0,0,1-.14-1,3.63,3.63,0,0,1,.13-1,2.37,2.37,0,0,1,.43-.82,2.09,2.09,0,0,1,.72-.55,2.26,2.26,0,0,1,1-.21,2,2,0,0,1,.88.18,1.59,1.59,0,0,1,.64.47,1.88,1.88,0,0,1,.39.71,3.15,3.15,0,0,1,.13.9v.28a1.19,1.19,0,0,0,0,.25Zm2.42-.71a1.68,1.68,0,0,0-.07-.5,1.18,1.18,0,0,0-.21-.42,1,1,0,0,0-.86-.4,1.1,1.1,0,0,0-.89.35,1.79,1.79,0,0,0-.38,1Z" transform="translate(-203.4 -250.8)"/><path class="cls-3" d="M359.63,340a6.18,6.18,0,0,1,.67-.08c.29,0,.57,0,.87,0a5,5,0,0,1,1,.1,2,2,0,0,1,.76.31,1.47,1.47,0,0,1,.5.55,1.72,1.72,0,0,1,.17.82,1.64,1.64,0,0,1-.33,1,1.38,1.38,0,0,1-.36.32,1.33,1.33,0,0,1-.4.19,1.54,1.54,0,0,1,.54.14,1.65,1.65,0,0,1,.49.32,1.69,1.69,0,0,1,.35.53,2,2,0,0,1,.14.77,1.84,1.84,0,0,1-.22.94,1.67,1.67,0,0,1-.59.62,2.7,2.7,0,0,1-.89.34,4.68,4.68,0,0,1-1.09.11l-.78,0-.82-.08Zm1.66,2.85a1.52,1.52,0,0,0,1-.28,1.05,1.05,0,0,0,.34-.84.93.93,0,0,0-.37-.81,1.62,1.62,0,0,0-1-.26h-.36l-.3,0v2.16ZM360.6,346a1.52,1.52,0,0,0,.34,0h.4A4.26,4.26,0,0,0,362,346a1.53,1.53,0,0,0,.52-.2.94.94,0,0,0,.37-.37,1.19,1.19,0,0,0,.13-.6,1.32,1.32,0,0,0-.12-.59,1.14,1.14,0,0,0-.33-.39,1.42,1.42,0,0,0-.52-.21,3.13,3.13,0,0,0-.63-.06h-.8Z" transform="translate(-203.4 -250.8)"/><path class="cls-3" d="M367.09,344.58a1.39,1.39,0,0,0,1.58,1.54,3.43,3.43,0,0,0,1.28-.24,1.42,1.42,0,0,1,.13.35,1.9,1.9,0,0,1,.05.4,2.84,2.84,0,0,1-.68.2,4.39,4.39,0,0,1-.84.07,3.25,3.25,0,0,1-1.14-.18,2.08,2.08,0,0,1-.78-.53,2,2,0,0,1-.46-.8,3.52,3.52,0,0,1-.14-1,3.62,3.62,0,0,1,.14-1,2.2,2.2,0,0,1,.42-.82,2.09,2.09,0,0,1,.72-.55,2.34,2.34,0,0,1,1-.21,2,2,0,0,1,.88.18,1.56,1.56,0,0,1,.63.47,1.76,1.76,0,0,1,.39.71,2.83,2.83,0,0,1,.14.9c0,.08,0,.18,0,.28s0,.18,0,.25Zm2.42-.71a1.69,1.69,0,0,0-.08-.5.93.93,0,0,0-.21-.42,1,1,0,0,0-.35-.3,1.13,1.13,0,0,0-.51-.1,1.1,1.1,0,0,0-.88.35,1.65,1.65,0,0,0-.38,1Z" transform="translate(-203.4 -250.8)"/><path class="cls-3" d="M374.52,346.79h-.69l-1.61-4.88a1.1,1.1,0,0,1,.26,0H373a.9.9,0,0,1,.25,0l1.36,4.53,1.39-4.53a3.18,3.18,0,0,1,.47,0h.23a1.18,1.18,0,0,1,.27,0l-1.89,5.86a4.22,4.22,0,0,1-.28.66,1.46,1.46,0,0,1-.32.43,1.11,1.11,0,0,1-.41.23,1.88,1.88,0,0,1-.51.06,3.25,3.25,0,0,1-.44,0,3,3,0,0,1-.37-.08,1.78,1.78,0,0,1,.15-.73l.23.06a1.66,1.66,0,0,0,.32,0,.93.93,0,0,0,.24,0,.54.54,0,0,0,.2-.1.71.71,0,0,0,.18-.2,2.18,2.18,0,0,0,.15-.36Z" transform="translate(-203.4 -250.8)"/><path class="cls-3" d="M381,346.9a2.41,2.41,0,0,1-1-.19,1.92,1.92,0,0,1-.71-.54,2.42,2.42,0,0,1-.43-.81,3.58,3.58,0,0,1-.13-1,3.63,3.63,0,0,1,.13-1,2.37,2.37,0,0,1,.43-.8A2.05,2.05,0,0,1,380,342a2.6,2.6,0,0,1,2,0,2.12,2.12,0,0,1,1.13,1.35,3.29,3.29,0,0,1,.14,1,3.25,3.25,0,0,1-.14,1,2.09,2.09,0,0,1-.42.81,1.92,1.92,0,0,1-.71.54A2.41,2.41,0,0,1,381,346.9Zm0-.75a1.08,1.08,0,0,0,1-.48,2.36,2.36,0,0,0,.32-1.32A2.3,2.3,0,0,0,382,343a1.07,1.07,0,0,0-1-.47,1,1,0,0,0-1,.47,2.31,2.31,0,0,0-.31,1.31,2.37,2.37,0,0,0,.31,1.32A1,1,0,0,0,381,346.15Z" transform="translate(-203.4 -250.8)"/><path class="cls-3" d="M385.73,341.91a1.52,1.52,0,0,1,.21,0h.39l.2,0c0,.09,0,.22.05.38a3.58,3.58,0,0,1,0,.41,1.44,1.44,0,0,1,.25-.33,2.28,2.28,0,0,1,.33-.29,1.78,1.78,0,0,1,.44-.2,1.61,1.61,0,0,1,.54-.09,1.52,1.52,0,0,1,1.24.49,2.19,2.19,0,0,1,.4,1.42v3.09l-.24,0h-.47l-.23,0V344a1.82,1.82,0,0,0-.21-1,.75.75,0,0,0-.67-.32,1.21,1.21,0,0,0-.5.1,1.1,1.1,0,0,0-.42.29,1.53,1.53,0,0,0-.29.52,2.18,2.18,0,0,0-.11.76v2.48l-.23,0H386l-.24,0Z" transform="translate(-203.4 -250.8)"/><path class="cls-3" d="M395.53,339.81l.24,0h.46l.23,0v6.84a6.85,6.85,0,0,1-.8.18,7.5,7.5,0,0,1-1,.07,3.49,3.49,0,0,1-1-.13,1.92,1.92,0,0,1-.8-.42,2,2,0,0,1-.54-.76,2.82,2.82,0,0,1-.2-1.15,3.1,3.1,0,0,1,.17-1.08,2.56,2.56,0,0,1,.5-.83,2.44,2.44,0,0,1,.77-.54,2.56,2.56,0,0,1,1-.19,2.81,2.81,0,0,1,.5,0,2.21,2.21,0,0,1,.44.1Zm0,2.93a1.64,1.64,0,0,0-.41-.12,3.3,3.3,0,0,0-.47,0,1.45,1.45,0,0,0-.68.15,1.26,1.26,0,0,0-.47.38,1.88,1.88,0,0,0-.27.59,2.5,2.5,0,0,0-.09.74,1.74,1.74,0,0,0,.42,1.29,1.62,1.62,0,0,0,1.15.39l.45,0,.37-.07Z" transform="translate(-203.4 -250.8)"/><g class="cls-4"><rect class="cls-5" x="109.23" y="63.01" width="29.65" height="20.91"/></g><g class="cls-6"><rect class="cls-7" x="140.18" y="57.52" width="13.09" height="26.64"/></g><g class="cls-8"><rect class="cls-9" x="67.37" y="55.03" width="19.49" height="29.37"/></g><g class="cls-10"><rect class="cls-11" x="89.29" y="63.01" width="16.92" height="21.39"/></g><g class="cls-12"><rect class="cls-13" x="181.84" y="63.49" width="11.98" height="20.44"/></g><g class="cls-14"><rect class="cls-15" x="154.13" y="63.01" width="18.85" height="21.39"/></g><g class="cls-16"><rect class="cls-17" x="175.48" y="55.03" width="5.57" height="28.9"/></g><g class="cls-18"><rect class="cls-19" x="209.43" y="258.05" width="35.63" height="32.37" transform="translate(-318.87 -73.47) rotate(-34.56)"/></g><g class="cls-20"><rect class="cls-21" x="224.45" y="256.25" width="35.79" height="21.47" transform="translate(-240.28 -211.94) rotate(-8.52)"/></g><g class="cls-22"><rect class="cls-23" x="209.29" y="276.73" width="36.04" height="31.61" transform="translate(-320.14 -95.66) rotate(-30.38)"/></g><g class="cls-24"><rect class="cls-25" x="225.02" y="290.16" width="35.2" height="19.4" transform="translate(-224.83 -232.11) rotate(-4.22)"/></g><g class="cls-26"><rect class="cls-27" x="233.56" y="267.01" width="42.61" height="33.85" transform="translate(-291.89 199.52) rotate(-73.94)"/></g></svg>